# xmcd
#
# Track frame offsets:
#	150
#	11470
#	25220
#	35120
#	52600
#	64593
#	81905
#	92408
#	104780
#	122683
#	136725
#	148590
#	155143
#	172458
#	186270
#	195715
#	208373
#	218093
#	232533
#	244165
#
# Disc length: 3422
#
# Revision: 5
# Processed by: cddbd v1.5.1PL0 Copyright (c) Steve Scherf et al.
# Submitted via: FreeRIP 2.60 
# Normalized: r4:TDELIM( - )
#
DISCID=1d0d5c14
DTITLE=Various Artist - The Blues Collection
DYEAR=1991
DGENRE=Blues
TTITLE0=Eric Clapton - Snake Drive
TTITLE1=Savoy Brown Blues Band - I Tried
TTITLE2=John Mayall and The Bluesbreakers - I'm Your Witchdoctor
TTITLE3=Albert Lee - The Next Milestone
TTITLE4=Jeff Beck and The All Stars - Steelin'
TTITLE5=Savoy Brown Blues Band - Cold Blooded Woman
TTITLE6=Eric Clapton - West Coast Idea
TTITLE7=Stones Masonry - Flapjacks
TTITLE8=John Mayall and The Bluesbreakers - Telephone Blues
TTITLE9=Tony McPhee - Ain't Gonna Cry No More
TTITLE10=Santa Barbara and Machine Head - Rubber Monkey
TTITLE11=Eric Clapton and Jimmy Page - Choker
TTITLE12=Albert Lee - Crosstown Link
TTITLE13=Jeremy Spencer - Look Down At My Woman
TTITLE14=Jimmy Page and The All Stars - L.A. Breakdown
TTITLE15=Cyril Davies and The All Stars - Someday Baby
TTITLE16=Eric Clapton - Tribute To Elmore
TTITLE17=Rod Stewart - So Much To Say
TTITLE18=Jeremy Spencer - Who's Knocking
TTITLE19=John Mayall and The Bluesbreakers - On Top Of The World
EXTD=YEAR: 1991
EXTT0=
EXTT1=
EXTT2=
EXTT3=
EXTT4=
EXTT5=
EXTT6=
EXTT7=
EXTT8=
EXTT9=
EXTT10=
EXTT11=
EXTT12=
EXTT13=
EXTT14=
EXTT15=
EXTT16=
EXTT17=
EXTT18=
EXTT19=
PLAYORDER=
